<svg id="Layer_1" data-name="Layer 1" xmlns="http://www.w3.org/2000/svg" viewBox="0 0 182 45">
  <defs>
    <style>
      .cls-1 {
        fill: #fff;
      }
    </style>
  </defs>
  <title>biq_logo_white</title>
  <g>
    <path class="cls-1" d="M.67,43.94,29.25,1.06H71.09a23.46,23.46,0,0,1,6.87.8A7,7,0,0,1,81.45,4a3.64,3.64,0,0,1,.76,2.9,8.45,8.45,0,0,1-1.33,3.25L75,18.77a6.7,6.7,0,0,1-1.83,1.74,18.79,18.79,0,0,1-2.77,1.55,21.28,21.28,0,0,1-3.06,1.12,13.54,13.54,0,0,1-2.85.51,10.19,10.19,0,0,1,2.16.93,7.68,7.68,0,0,1,2,1.51A4.66,4.66,0,0,1,69.72,28a2.75,2.75,0,0,1-.51,2.26l-2.3,3.59a23.75,23.75,0,0,1-5,5.86,19.23,19.23,0,0,1-5.08,3,16.18,16.18,0,0,1-4.68,1.07c-1.46.1-2.74.15-3.85.15ZM43.44,33.81a10.06,10.06,0,0,0,3.85-.64,4.85,4.85,0,0,0,2.27-1.7l1.51-2.28A1.75,1.75,0,0,0,51.14,27c-.48-.64-1.53-1-3.17-1H31.48l-5.25,7.75ZM37.53,17.06H53.8a12.79,12.79,0,0,0,3.89-.51,4.23,4.23,0,0,0,2.38-1.75L61,13.42c.67-1,.67-1.78,0-2.41a5.12,5.12,0,0,0-3.52-.95H42.14Z"/>
    <path class="cls-1" d="M107.05,43.36a7.29,7.29,0,0,1-3.21-1.8,4.49,4.49,0,0,1-1.29-3.13,8,8,0,0,1,1.73-4.58l15.84-23.78a23,23,0,0,1,4.46-5.22,16.54,16.54,0,0,1,4.28-2.67,13.11,13.11,0,0,1,3.89-1q1.83-.15,3.21-.15h34.2a23.46,23.46,0,0,1,6.87.8,6.93,6.93,0,0,1,3.49,2.08,3.6,3.6,0,0,1,.76,2.88A8.35,8.35,0,0,1,180,10.06L164.11,33.81H173l-6.77,10.13H111.12A14.25,14.25,0,0,1,107.05,43.36Zm31.28-9.55a14.28,14.28,0,0,0,5.94-1.15,8.53,8.53,0,0,0,3.78-3L158.42,14a2.44,2.44,0,0,0,.54-1.69,2.21,2.21,0,0,0-.61-1.26,3.16,3.16,0,0,0-1.3-.76,5.48,5.48,0,0,0-1.58-.25H144.81a13.72,13.72,0,0,0-2.09.18,11.09,11.09,0,0,0-2.34.65,10.3,10.3,0,0,0-2.23,1.22A7.76,7.76,0,0,0,136.32,14L125.88,29.71a2.3,2.3,0,0,0-.11,2.81,3.63,3.63,0,0,0,3.2,1.29Z"/>
    <path class="cls-1" d="M68.28,43.94H87.14L105,17.15H86.13ZM96.86,1.06l-6,9,18.89,0,5.94-8.92Z"/>
  </g>
</svg>
